<?xml version="1.0" standalone="no"?>
<!DOCTYPE svg PUBLIC "-//W3C//DTD SVG 1.1//EN" "http://www.w3.org/Graphics/SVG/1.1/DTD/svg11.dtd" >
<!--
2013-9-30: Created.
-->
<svg>
<metadata>
Created by iconfont
</metadata>
<defs>

<font id="iconfont" horiz-adv-x="1024" >
  <font-face
    font-family="iconfont"
    font-weight="500"
    font-stretch="normal"
    units-per-em="1024"
    ascent="896"
    descent="-128"
  />
    <missing-glyph />
    
    <glyph glyph-name="x" unicode="x" horiz-adv-x="1001"
d="M281 543q-27 -1 -53 -1h-83q-18 0 -36.5 -6t-32.5 -18.5t-23 -32t-9 -45.5v-76h912v41q0 16 -0.5 30t-0.5 18q0 13 -5 29t-17 29.5t-31.5 22.5t-49.5 9h-133v-97h-438v97zM955 310v-52q0 -23 0.5 -52t0.5 -58t-10.5 -47.5t-26 -30t-33 -16t-31.5 -4.5q-14 -1 -29.5 -0.5
t-29.5 0.5h-32l-45 128h-439l-44 -128h-29h-34q-20 0 -45 1q-25 0 -41 9.5t-25.5 23t-13.5 29.5t-4 30v167h911zM163 247q-12 0 -21 -8.5t-9 -21.5t9 -21.5t21 -8.5q13 0 22 8.5t9 21.5t-9 21.5t-22 8.5zM316 123q-8 -26 -14 -48q-5 -19 -10.5 -37t-7.5 -25t-3 -15t1 -14.5
t9.5 -10.5t21.5 -4h37h67h81h80h64h36q23 0 34 12t2 38q-5 13 -9.5 30.5t-9.5 34.5q-5 19 -11 39h-368zM336 498v228q0 11 2.5 23t10 21.5t20.5 15.5t34 6h188q31 0 51.5 -14.5t20.5 -52.5v-227h-327z" />
    

    
    <glyph glyph-name="right" unicode="&#58899;" d="M253.647872-99.81056l48.335872-48.336896 446.498816 446.589952L301.983744 744.982272 253.647872 696.6464l398.239744-398.232576L253.647872-99.81056z"  horiz-adv-x="1024" />

    
    <glyph glyph-name="shezhi" unicode="&#58907;" d="M511.994372 114.660828c-101.688057 0-184.408356 82.862219-184.408356 184.710862 0 101.847619 82.720299 184.701652 184.408356 184.701652s184.417566-82.85301 184.417566-184.701652C696.411938 197.522024 613.682428 114.660828 511.994372 114.660828zM511.994372 423.177414c-68.157032 0-123.61022-55.543014-123.61022-123.805724 0-68.272943 55.453188-123.815957 123.61022-123.815957 68.166242 0 123.620454 55.543014 123.620454 123.815957C635.614825 367.6344 580.160614 423.177414 511.994372 423.177414zM581.629118 685.954259l0-40.661072c0-29.854958 17.801141-56.518225 45.331252-67.944462 8.955319-3.720741 18.401846-5.598508 28.096023-5.598508 19.615537 0 38.055247 7.650237 51.915474 21.538549l26.02579 26.061562 98.469627-98.629321-26.016579-26.061562c-21.074831-21.109784-27.321348-52.570309-15.913063-80.145341 11.399075-27.584242 38.026593-45.402049 67.827514-45.402049l39.339549 0 0-139.490961-39.339549 0c-29.800921 0-56.429462-17.817808-67.827514-45.39284-11.408285-27.584242-5.161768-59.043744 15.913063-80.153528l26.016579-26.062586-98.469627-98.629321-26.02579 26.062586c-13.86125 13.887288-32.299937 21.538549-51.915474 21.538549-9.694177 0-19.140703-1.87879-28.096023-5.599532-27.530111-11.416004-45.331252-38.089503-45.331252-67.943438l0-39.393195L442.369858-85.952212l0 39.393195c0 29.854958-17.791931 56.527434-45.322042 67.943438-8.955319 3.720741-18.41208 5.599532-28.106256 5.599532-19.605303 0-38.054223-7.65126-51.91445-21.538549l-26.026813-26.062586-98.469627 98.629321 26.017603 26.062586c21.074831 21.109784 27.320325 52.569286 15.913063 80.144318-11.399075 27.584242-38.026593 45.402049-67.828537 45.402049l-39.331362 0L127.301437 369.112054l39.331362 0c29.801944 0 56.430486 17.817808 67.828537 45.402049 11.407262 27.575032 5.161768 59.034535-15.913063 80.145341l-26.017603 26.061562 98.469627 98.629321 26.026813-26.061562c13.86125-13.888312 32.309147-21.538549 51.91445-21.538549 9.694177 0 19.141727 1.877767 28.096023 5.598508 27.540345 11.426237 45.332275 38.089503 45.332275 67.944462l0 40.661072L581.629118 685.954259M581.629118 746.849164 442.369858 746.849164c-33.44097 0-60.798136-31.204699-60.798136-64.697511l0-36.858466c0-5.124717-3.082325-9.729595-7.796889-11.69025-1.558559-0.64673-3.20001-0.957815-4.833273-0.957815-3.282901 0-6.510541 1.277086-8.927689 3.702322l-26.026813 26.061562c-11.818648 11.845793-27.402193 17.763572-42.987785 17.763572s-31.159927-5.91778-42.987785-17.763572l-98.477814-98.629321c-23.637295-23.681352-23.637295-62.445214 0-86.11838l26.026813-26.061562c3.610372-3.619434 4.686934-9.063423 2.73541-13.788028-1.951525-4.722558-6.556591-7.80578-11.663099-7.80578l-36.804715 0c-33.430737 0-63.323759-27.40107-63.323759-60.894905l0-139.490961c0-33.492812 29.893022-60.894905 63.323759-60.894905l36.804715 0c5.106507 0 9.711574-3.082198 11.663099-7.80578s0.874963-10.168594-2.73541-13.788028l-26.026813-26.062586c-23.637295-23.681352-23.637295-62.436004 0-86.117356l98.477814-98.629321c11.827858-11.835559 27.402193-17.763572 42.987785-17.763572s31.169137 5.928013 42.987785 17.763572l26.026813 26.061562c2.416125 2.416026 5.644788 3.702322 8.927689 3.702322 1.633264 0 3.273691-0.310062 4.833273-0.957815 4.714565-1.960655 7.796889-6.574742 7.796889-11.69025l0-36.859489c0-33.484625 27.357165-63.429635 60.798136-63.429635l139.25926 0c33.439947 0 60.797112 29.946033 60.797112 63.429635l0 36.859489c0 5.115508 3.073114 9.729595 7.796889 11.69025 1.558559 0.647753 3.201033 0.957815 4.833273 0.957815 3.282901 0 6.510541-1.286296 8.927689-3.702322l26.017603-26.061562c11.827858-11.835559 27.412426-17.763572 42.996995-17.763572 15.576382 0 31.170161 5.928013 42.988808 17.763572l98.477814 98.629321c23.637295 23.682375 23.637295 62.437028 0 86.117356l-26.026813 26.062586c-3.611396 3.619434-4.686934 9.063423-2.736433 13.788028 1.951525 4.723581 6.556591 7.80578 11.663099 7.80578l36.805739 0c33.430737 0 63.323759 27.40107 63.323759 60.894905L957.494652 369.112054c0 33.492812-29.893022 60.894905-63.323759 60.894905l-36.805739 0c-5.106507 0-9.711574 3.083222-11.663099 7.80578-1.950502 4.723581-0.874963 10.168594 2.736433 13.788028l26.026813 26.061562c23.637295 23.672142 23.637295 62.437028 0 86.11838l-98.477814 98.629321c-11.818648 11.845793-27.412426 17.763572-42.988808 17.763572-15.584569 0-31.169137-5.91778-42.996995-17.763572l-26.017603-26.061562c-2.416125-2.426259-5.644788-3.702322-8.927689-3.702322-1.63224 0-3.273691 0.310062-4.833273 0.957815-4.723775 1.960655-7.796889 6.565533-7.796889 11.69025l0 36.858466C642.42623 715.645488 615.069065 746.849164 581.629118 746.849164L581.629118 746.849164z"  horiz-adv-x="1024" />

    
    <glyph glyph-name="shouji" unicode="&#59191;" d="M691.904 821.333h-334.784c-41.856 0-76.096-31.2-76.096-69.344v-693.344c0-38.144 34.24-69.344 76.096-69.344h334.784c41.856 0.032 76.096 31.232 76.096 69.376v693.312c0 38.144-34.24 69.344-76.096 69.344M478.88 765.877h91.296c8.384 0 15.232-6.176 15.232-13.856 0-7.648-6.848-13.856-15.232-13.856h-91.296c-8.416 0-15.232 6.208-15.232 13.856 0.032 7.648 6.848 13.856 15.232 13.856M524.544 17.077c-25.248 0-45.664 18.592-45.664 41.6s20.416 41.6 45.664 41.6c25.216 0 45.664-18.592 45.664-41.6-0.032-23.008-20.448-41.6-45.664-41.6M737.6 127.989h-426.112v554.688h426.112v-554.688z"  horiz-adv-x="1024" />

    
    <glyph glyph-name="faild" unicode="&#58892;" d="M512.697 820.555c-247.539 0-448.208-200.669-448.208-448.208 0-247.54 200.669-448.208 448.208-448.208 247.54 0 448.208 200.668 448.208 448.208 0 247.539-200.668 448.208-448.208 448.208zM690.686 238.792c12.265-12.274 12.265-32.171 0-44.427-12.283-12.274-32.171-12.274-44.453 0l-133.316 133.316-133.327-133.316c-12.274-12.274-32.161-12.274-44.445 0-12.265 12.256-12.265 32.153 0 44.427l133.335 133.353-133.335 133.317c-12.265 12.256-12.265 32.171 0 44.444 12.283 12.256 32.171 12.256 44.445 0l133.327-133.335 133.316 133.335c12.283 12.256 32.171 12.256 44.453 0 12.265-12.274 12.265-32.189 0-44.444l-133.335-133.317 133.335-133.353z"  horiz-adv-x="1024" />

    
    <glyph glyph-name="xiaoxi" unicode="&#58953;" d="M511.991 3.837c-28.781 0-75.002 0-75.002 0l-206.235-112.503v206.235c-102.808 72.171-168.754 175.747-168.754 300.025 0 217.448 201.472 393.74 449.991 393.74s449.991-176.291 449.991-393.74c0.019-217.485-201.454-393.757-449.991-393.757v0zM511.991 735.102c-217.448 0-393.777-151.109-393.777-337.507 0-114.377 67.257-220.205 168.791-281.237v-125.009l149.966 68.739c0 0 42.17 0 75.002 0 217.448 0 393.777 151.109 393.777 337.507 0.019 186.416-176.31 337.507-393.757 337.507v0zM737.014 341.343c-31.088 0-56.271 25.181-56.271 56.271s25.181 56.271 56.271 56.271c31.051 0 56.232-25.181 56.232-56.271s-25.181-56.271-56.232-56.271v0zM511.991 341.343c-31.087 0-56.271 25.181-56.271 56.271s25.181 56.271 56.271 56.271c31.087 0 56.271-25.181 56.271-56.271s-25.181-56.271-56.271-56.271v0zM286.986 341.343c-31.051 0-56.232 25.181-56.232 56.251s25.181 56.271 56.232 56.271c31.088 0 56.271-25.181 56.271-56.271s-25.201-56.251-56.271-56.251v0z"  horiz-adv-x="1024" />

    
    <glyph glyph-name="right2" unicode="&#59030;" d="M511.968 779.008C247.424 779.008 32.928 564.64 32.928 300c0-264.576 214.496-479.008 479.04-479.008 264.672 0 479.104 214.432 479.104 479.008C991.072 564.64 776.64 779.008 511.968 779.008zM784.288 448.448 438.944 94.976c-7.456-8.032-17.792-11.712-28.224-11.456-10.432-0.256-20.672 3.424-28.224 11.456l-142.848 150.976c-14.72 15.552-13.248 40.832 3.232 56.384 16.512 15.552 41.792 15.584 56.48 0.096l111.904-118.304 313.376 320.832c14.72 15.52 40 15.424 56.448-0.096C797.6 489.248 799.008 463.968 784.288 448.448z"  horiz-adv-x="1024" />

    
    <glyph glyph-name="xiala" unicode="&#59048;" d="M508.511 860.791c37.526 0 67.972-30.435 67.972-67.973 0-37.537-30.445-67.972-67.972-67.972-37.538 0-67.972 30.435-67.972 67.972 0 37.539 30.435 67.973 67.972 67.973zM406.553 656.875h203.917c18.763 0 33.984-15.213 33.984-33.986v-22.657c0-18.775-15.221-33.986-33.984-33.986h-203.917c-18.775 0-33.987 15.211-33.987 33.986v22.657c0 18.775 15.213 33.986 33.987 33.986zM361.238 498.271h294.547c18.763 0 33.984-15.211 33.984-33.986v-22.658c0-18.773-15.221-33.985-33.984-33.985h-294.547c-18.775 0-33.987 15.211-33.987 33.985v22.658c0 18.775 15.213 33.986 33.987 33.986zM397.434 104.090c-91.789 104.214-206.128 235.582-206.128 235.582s204.083 0 380.75 0c134.818 0 253.66 0 253.66 0s-113.156-129.308-204.293-233.478c-150.548-172.054-81.534-163.804-223.987-2.104z"  horiz-adv-x="1024" />

    
    <glyph glyph-name="mima" unicode="&#58931;" d="M801.942 488.7h-79.405v144.981c0 117.538-86.159 212.874-192.507 212.874h-36.083c-106.331 0-192.489-95.335-192.489-212.874v-144.982h-79.405c-21.277 0-38.507-19.032-38.507-42.59v-396.382c0-23.487 17.231-42.554 38.507-42.554h579.89c21.278 0 38.51 19.067 38.51 42.554v396.382c0.001 23.557-17.231 42.59-38.509 42.59zM511.998 81.663c-40.184 0-72.794 35.994-72.794 80.473 0 28.262 13.187 53.031 33.092 67.395v139.065c0 22.272 17.213 40.272 38.51 40.272 21.277 0 38.473-18 38.473-40.272v-137.428c21.242-14.040 35.516-39.702 35.516-69.033-0.001-44.48-32.611-80.473-72.795-80.473zM660.757 488.7h-290.746v129.087c0 79.011 59.535 143.091 132.935 143.091h24.911c73.4 0 132.9-64.080 132.9-143.091v-129.087z"  horiz-adv-x="1024" />

    
    <glyph glyph-name="correct" unicode="&#59085;" d="M767.308 498.447l-287.963-287.965c-13.359-13.359-33.546-15.438-48.984-6.234-2.672 1.782-5.64 3.859-8.016 6.234l-165.654 165.654c-15.734 16.031-15.734 41.265 0 57.296 15.734 15.734 41.265 15.734 56.999 0l137.154-137.45 259.464 259.464c15.734 15.734 41.265 15.734 56.999 0 15.734-15.734 15.734-41.266-0-56.999zM512 828.268c-245.808 0-445.305-199.497-445.305-445.305s199.497-445.305 445.305-445.305 445.305 199.497 445.305 445.305-199.497 445.305-445.305 445.305z"  horiz-adv-x="1024" />

    
    <glyph glyph-name="add" unicode="&#58983;" d="M852.864 633.568c-187.904 187.52-492.096 187.328-679.744-0.448-187.584-187.84-187.392-492.032 0.384-679.808 187.84-187.52 492.224-187.264 679.744 0.576C1040.768 141.728 1040.768 445.984 852.864 633.568zM747.328 246.496l-197.12-0.32 0-197.632c0-20.352-16.448-37.056-36.864-37.184-20.48 0-36.992 16.704-36.992 37.056L476.352 246.112 278.848 245.856c-20.416 0-36.992 16.512-36.992 36.928 0 20.352 16.576 37.056 36.992 37.056l197.376 0.256L476.224 516.832c0 20.48 16.512 37.184 36.992 37.184S550.144 537.44 550.144 516.96l0-196.864 197.056 0.192c20.416 0 37.056-16.512 37.056-36.928C784.32 263.008 767.744 246.496 747.328 246.496z"  horiz-adv-x="1024" />

    
    <glyph glyph-name="dingdan" unicode="&#58991;" d="M800.325-59.961h-581.452c-52.604 0-135.1 66.149-135.1 135.019v549.082c0 57.979 59.385 135.005 122.8 135.005h73.539v-130.797h458.126v130.797h64.341c63.43 0 132.846-58.666 132.846-135.469v-552.745c0-79.775-71.668-130.892-135.1-130.892v0 0zM771.617 480.483c0 9.021-7.326 16.427-16.347 16.427h-491.343c-9.021 0-16.347-7.406-16.347-16.427v-32.755c0-9.035 7.326-16.345 16.347-16.345h491.344c9.021 0 16.347 7.309 16.347 16.345l-0.001 32.755zM771.617 316.755c0 9.021-7.326 16.347-16.347 16.347h-491.343c-9.021 0-16.347-7.326-16.347-16.347v-32.755c0-9.118 7.326-16.427 16.347-16.427h491.344c9.021 0 16.347 7.309 16.347 16.427l-0.001 32.755zM771.617 152.948c0 9.021-7.326 16.345-16.347 16.345h-491.343c-9.021 0-16.347-7.324-16.347-16.345v-32.756c0-9.036 7.326-16.346 16.347-16.346h491.344c9.021 0 16.347 7.309 16.347 16.346l-0.001 32.756zM476.451 693.711h-130.893v130.814h65.446c0 36.097 29.332 65.445 65.445 65.445h65.445c36.098 0 65.446-29.349 65.446-65.445h65.446v-130.814h-196.335zM509.207 834.793c-22.649 0-40.928-18.377-40.928-40.943 0-22.551 18.281-40.848 40.928-40.848 22.566 0 40.865 18.298 40.865 40.848 0 22.566-18.299 40.943-40.865 40.943v0 0z"  horiz-adv-x="1024" />

    
    <glyph glyph-name="pay" unicode="&#58893;" d="M856.518 720.101c-188.985 188.949-494.263 188.949-683.203 0-189.048-188.976-189.96-495.229-0.921-684.223 188.922-188.985 496.132-188.985 685.108 0 188.985 188.994 188.018 495.247-0.984 684.223zM683.97 438.34v-62.775l-106.016-0-25.793-54.214v-2.845h131.809v-62.775h-131.809v-165.495h-74.516v165.486h-131.809v62.775h131.809v2.854l-25.793 54.214-106.016 0v62.775h77.36l-83.095 179.773h71.644l103.153-233.978 103.153 233.978h71.644l-83.095-179.773c-0.009 0 77.369 0 77.369 0z"  horiz-adv-x="1024" />

    
    <glyph glyph-name="shengri" unicode="&#59125;" d="M933.875 92.294c0-3.31 0-6.588 0-9.897-1.396-4.641-2.629-9.346-4.252-13.922-7.496-20.834-24.338-30.147-44.33-35.048-9.475-2.337-19.244-3.635-28.882-5.42-229.63 0-459.228 0-688.857 0-9.638 1.785-19.406 3.115-28.915 5.42-22.327 5.42-39.85 16.647-46.082 40.5-0.713 2.888-1.623 5.647-2.434 8.47 0 3.31 0 6.588 0 9.897 21.322 0 42.674 0 65.099 0 0 56.791 0 112.316 0 169.691 32.615-33.717 73.115-39.526 114.944-39.299 41.928 0.26 82.33 6.62 111.927 39.623 11.521-7.432 22.295-15.998 34.366-21.97 31.057-15.35 64.807-17.978 98.719-17.719 31.154 0.228 62.178 3.181 90.703 16.908 12.428 5.971 23.592 14.572 35.957 22.424 28.882-32.484 69.252-38.845 111.083-39.234s82.428 5.095 115.594 38.488c0-56.986 0-112.316 0-168.88 22.684-0.033 44.005-0.033 65.358-0.033zM201.987 268.93c36.151-16.745 73.99-16.713 111.991-8.373 26.318 5.776 47.574 18.271 52.994 48.029 1.363 7.432 8.729 11.813 16.162 11.26 8.080-0.616 13.597-5.063 14.896-12.948 1.85-11.26 7.4-20.38 16.193-26.772 8.080-5.873 17.037-11.488 26.481-14.408 45.141-13.987 90.865-13.987 136.33-2.012 24.047 6.295 43.972 18.303 49.814 45.627 1.59 7.4 8.178 10.936 15.837 10.449 8.016-0.519 13.5-4.868 14.83-12.948 3.569-22.068 17.654-34.983 37.514-41.733 40.24-13.728 80.935-13.597 121.013 0.682 20.348 7.269 36.217 20.607 43.81 41.766 1.557 4.413 3.083 10.028 1.688 14.084-6.783 19.471-19.342 34.822-36.314 46.537-18.335 12.623-38.975 16.745-60.847 16.713-84.018-0.033-168.004 0-252.053 0-84.537 0-169.074 0.065-253.644-0.033-45.368-0.065-79.734-21.97-95.538-60.912-1.298-3.213-1.525-7.561-0.519-10.871 6.361-20.639 20.12-35.21 39.365-44.135zM414.936 530.071c0-25.475-0.033-50.431 0-75.353 0.033-24.307 12.656-36.995 37.125-37.092 29.077-0.098 58.186-0.098 87.295 0 24.599 0.097 37.028 12.526 37.060 36.963 0.065 32.939 0.292 65.877-0.065 98.849-0.194 19.6 4.705 37.319 16.096 53.35 3.472 4.9 6.88 9.963 9.67 15.285 4.9 9.412 2.564 22.587-4.738 29.725-7.042 6.848-15.447 7.042-26.513 2.142-11.002-4.835-22.327-9.151-33.75-12.85-24.566-7.788-49.975-9.573-75.613-9.768-38.943-0.357-71.525-31.543-73.698-69.967-1.168-19.99 6.522-29.174 27.13-31.283zM497.202 679.706c-2.629 8.080-4.965 15.382-7.302 22.651-6.978 21.905-4.932 41.635 10.871 59.971 7.788 9.022 12.462 20.769 18.043 30.31 3.569-11.877 8.113-25.799 12.040-39.948 3.699-13.5 3.959-27.292-0.746-40.533-3.927-11.002-8.99-21.516-14.377-34.205 9.509 4.835 18.335 8.438 26.254 13.5 28.266 18.205 37.677 43.81 27.941 76.1-8.178 27.194-22.879 50.982-40.5 72.952-7.561 9.475-16.291 18.043-24.955 27.519-3.181-9.281-4.673-16.972-8.307-23.463-9.281-16.453-19.406-32.452-29.401-48.483-13.176-21.158-20.705-43.388-15.577-68.766 4.868-24.307 23.041-43.777 46.017-47.607z"  horiz-adv-x="1024" />

    
    <glyph glyph-name="user" unicode="&#58880;" d="M620.969 295.931c-4.868 1.583-35.598 15.439-16.397 73.819h-0.266c50.049 51.54 88.304 134.526 88.304 216.196 0 125.597-83.527 191.409-180.579 191.409-97.115 0-180.162-65.813-180.162-191.409 0-82.001 38.045-165.314 88.393-216.734 19.619-51.481-15.472-70.592-22.816-73.281-101.652-36.758-220.893-103.767-220.893-169.91 0-17.857 0-7.049 0-24.786 0-90.119 174.724-110.607 336.431-110.607 161.945 0 334.462 20.487 334.462 110.607 0 17.739 0 6.929 0 24.786 0 68.143-119.838 134.613-226.477 169.91z"  horiz-adv-x="1024" />

    
    <glyph glyph-name="xingbie" unicode="&#59556;" d="M864.133 835.581c-0.451 6.22-2.758 11.931-6.374 16.571-1.216 1.555-2.582 2.992-4.07 4.275-5.375 4.697-12.408 7.538-20.119 7.573 0 0-0.038 0-0.077 0L659.809 864c-16.958 0-30.703-13.704-30.703-30.636 0-16.929 13.746-30.63 30.703-30.63l99.569 0L628.467 672.121c-49.414 39.883-112.268 63.779-180.712 63.779-159.037 0-287.962-128.929-287.962-287.969 0-148.237 112.016-270.296 256.017-286.193-0.032-0.587-0.051-1.178-0.051-1.773l0-95.988L287.777 63.977c-17.675 0-32.006-14.321-32.006-31.996 0-17.668 14.331-31.993 32.006-31.993l127.981 0 0-63.992c0-17.671 14.322-31.996 31.996-31.996 17.671 0 31.993 14.325 31.993 31.996l0 63.992L607.732-0.012c17.671 0 32.003 14.325 32.003 31.993 0 17.675-14.331 31.996-32.003 31.996L479.748 63.977l0 95.988c0 0.595-0.019 1.185-0.051 1.773 144 15.895 256.021 137.955 256.021 286.193 0 68.5-23.933 131.401-63.872 180.833l130.945 130.65 0-99.339c0-16.936 13.749-30.636 30.703-30.636 16.958 0 30.713 13.701 30.713 30.636L864.207 833.127C864.207 833.965 864.191 834.771 864.133 835.581zM447.755 223.958c-123.7 0-223.976 100.279-223.976 223.973 0 123.697 100.276 223.973 223.976 223.973s223.973-100.276 223.973-223.973C671.728 324.237 571.455 223.958 447.755 223.958z"  horiz-adv-x="1024" />

    
    <glyph glyph-name="iconfont" unicode="&#58964;" d="M431.569901 506.947537c104.681923 0 213.559308 23.023883 278.947137 66.922754l0-79.918457 60.578395 0L771.095433 668.933347c0 105.193565-174.879185 161.98581-339.423204 161.98581S92.146697 774.126911 92.146697 668.933347l0-477.566503c0-105.193565 174.879185-161.98581 339.423204-161.98581L431.569901 89.8571c-172.832617 0-278.947137 59.145798-278.947137 101.509743L152.622764 334.933547c65.387829-43.796542 174.162886-66.922754 278.947137-66.922754l0 60.578395c-172.832617 0-278.947137 59.145798-278.947137 101.509743L152.622764 573.767962C218.010593 529.97142 326.887978 506.947537 431.569901 506.947537zM431.569901 770.44309c172.832617 0 278.947137-59.145798 278.947137-101.509743s-106.11452-101.509743-278.947137-101.509743-278.947137 59.145798-278.947137 101.509743S258.839612 770.44309 431.569901 770.44309zM702.944739 473.793145c-150.320376 0-228.908564-57.815529-228.908564-114.91476L474.036175 51.995603c0-57.099231 78.690517-114.91476 228.908564-114.91476 149.194764 0 227.680624 56.996902 228.908564 113.686819l0.102328 0L931.955631 358.878385C931.853303 415.977616 853.265114 473.793145 702.944739 473.793145zM702.944739 413.317078c111.12861 0 168.432497-38.168482 168.432497-54.438693 0-16.270211-57.303887-54.438693-168.432497-54.438693S534.512241 342.608174 534.512241 358.878385C534.512241 375.148596 591.816129 413.317078 702.944739 413.317078zM702.944739-2.44309c-111.12861 0-168.432497 38.168482-168.432497 54.438693l0 73.267113c38.373139-20.874988 94.756071-34.791646 168.432497-34.791646s129.95703 13.916658 168.432497 34.791646L871.377236 51.995603C871.377236 35.725392 814.073349-2.44309 702.944739-2.44309zM702.944739 151.049465c-111.12861 0-168.432497 38.168482-168.432497 54.438693l0 73.267113c38.373139-20.874988 94.756071-34.791646 168.432497-34.791646s129.95703 13.916658 168.432497 34.791646l0-73.267113C871.377236 189.217947 814.073349 151.049465 702.944739 151.049465z"  horiz-adv-x="1024" />

    
    <glyph glyph-name="dot" unicode="&#58906;" d="M526.264 729.377c222.192 0 402.292-180.114 402.292-402.305s-180.099-402.292-402.292-402.292c-222.179 0-402.305 180.099-402.305 402.292 0 222.179 180.126 402.305 402.305 402.305z"  horiz-adv-x="1024" />

    
    <glyph glyph-name="time" unicode="&#58959;" d="M504.357 879.555c-278.23 0-503.772-225.547-503.772-503.782 0-278.23 225.542-503.772 503.772-503.772s503.782 225.542 503.782 503.772-225.552 503.782-503.782 503.782v0 0zM675.725 184.435l-17.813-17.813c-9.835-9.833-25.787-9.833-35.622 0l-163.356 163.361c-5.648 5.643-4.951 16.99-4.951 28.161v319.9c0 13.91 11.279 25.184 25.189 25.184h25.184c13.915 0 25.189-11.274 25.189-25.184v-311.809l146.18-146.176c9.833-9.838 9.833-25.785 0-35.625v0 0zM675.725 184.435z"  horiz-adv-x="1024" />

    
    <glyph glyph-name="success" unicode="&#59244;" d="M511.997 831.438c-247.112 0-447.432-200.324-447.432-447.438s200.319-447.438 447.432-447.438c247.117 0 447.438 200.324 447.438 447.438s-200.32 447.438-447.438 447.438zM758.737 520.624l-302.003-302.008c-7.109-7.105-16.854-9.973-26.081-8.601-9.237-1.372-18.981 1.496-26.086 8.601l-139.304 139.299c-11.907 11.916-11.907 31.231 0 43.149 11.912 11.912 31.236 11.912 43.149 0l122.241-122.241 284.941 284.946c11.912 11.907 31.231 11.907 43.144 0 11.912-11.916 11.912-31.236 0-43.144z"  horiz-adv-x="1024" />

    
    <glyph glyph-name="key" unicode="&#58901;" d="M649.3283834278584 754.78857421875C520.2397462546826 754.78857421875 415.8696287184954 650.4184566825629 415.8696287184954 521.329819509387c0-27.465820366144175 5.493163928389549-54.93164073228835 13.732191780209538-82.39746109843254L141.21142578125 150.5405276119709l0-137.32910183072087 137.32910183072087 0L278.54052761197084 95.60888687968259 360.937987986207 95.60888687968259l0 82.39746109843254 82.39746109843254 0 123.59547324478626 123.59547324478626c24.719956442713734-8.23902785181999 52.18577680885792-13.732191780209538 82.39746109843254-13.732191780209538 129.09007325470446 0 233.45875470936298 104.37011753618717 233.45875470936298 233.45875470936298S778.4184566825629 754.78857421875 649.3283834278584 754.78857421875zM717.9936520218848 507.59619164764877c-46.69261288046836 0-82.39746109843254 35.70484821796417-82.39746109843254 82.39746109843254s35.70484821796417 82.39746109843254 82.39746109843254 82.39746109843254S800.3911131203174 636.6862649023533 800.3911131203174 589.9936520218849 764.6862649023532 507.59619164764877 717.9936520218848 507.59619164764877z"  horiz-adv-x="1024" />

    
    <glyph glyph-name="tishi" unicode="&#58917;" d="M936.5504 563.1488C912.3328 619.1616 879.36 668.0064 837.632 709.6832 795.904 751.36 747.1104 784.2816 691.3024 808.4992 635.4944 832.7168 575.744 844.8 512.0512 844.8 448.3072 844.8 388.5568 832.7168 332.7488 808.4992 276.9408 784.2816 228.1984 751.36 186.4704 709.6832 144.7424 668.0064 111.7696 619.1616 87.5008 563.1488 63.232 507.0848 51.1488 447.2832 51.1488 383.6416 51.1488 320 63.232 260.3008 87.5008 204.5952 111.7696 148.8384 144.7424 100.096 186.4704 58.4192 228.1472 16.7936 276.9408-16.1792 332.7488-40.3968 388.5568-64.6144 448.3072-76.6976 512.0512-76.6976 575.744-76.6976 635.4944-64.6144 691.3024-40.3968 747.1104-16.1792 795.904 16.7936 837.632 58.4192 879.3088 100.096 912.3328 148.8384 936.5504 204.5952 960.8192 260.3008 972.9024 320 972.9024 383.6416 972.9536 447.2832 960.8192 507.0848 936.5504 563.1488L936.5504 563.1488 936.5504 563.1488ZM512.0512 86.4256C483.2256 86.4256 459.8784 109.7728 459.8784 138.5472 459.8784 167.3216 483.2256 190.6688 512.0512 190.6688 540.8768 190.6688 564.224 167.3216 564.224 138.5472 564.224 109.7728 540.8768 86.4256 512.0512 86.4256L512.0512 86.4256ZM564.224 303.0528C564.224 274.2784 540.8768 250.9312 512.0512 250.9312 483.2256 250.9312 459.8784 274.2784 459.8784 303.0528L459.8784 629.5552C459.8784 658.3808 483.2256 681.6768 512.0512 681.6768 540.8768 681.6768 564.224 658.3808 564.224 629.5552L564.224 303.0528 564.224 303.0528Z"  horiz-adv-x="1024" />

    
    <glyph glyph-name="tongxunlu" unicode="&#58938;" d="M116.948 552.151h115.494c13.867 0 25.149 11.7 25.149 26.078 0 14.382-11.282 26.083-25.149 26.083h-115.494c-13.868 0-25.151-11.702-25.151-26.083 0-14.377 11.282-26.078 25.151-26.078zM116.948 364.792h115.494c13.867 0 25.149 11.699 25.149 26.079 0 6.966-2.616 13.515-7.366 18.44-4.75 4.925-11.066 7.64-17.783 7.64h-115.494c-13.868 0-25.151-11.7-25.151-26.080s11.282-26.079 25.151-26.079zM257.591 204.2c0 6.97-2.616 13.521-7.367 18.445-4.749 4.926-11.065 7.641-17.782 7.641h-115.494c-13.868 0-25.151-11.703-25.151-26.086 0-14.377 11.283-26.074 25.151-26.074h115.494c13.867-0.001 25.149 11.695 25.149 26.074zM338.176 177.735l-3.395-8.242h56.054l1.681 3.171c26.273 49.515 88.029 85.745 150.143 88.106h6.066c2.289 0 4.563 0 6.782-0.005 62.145-2.361 123.901-38.588 150.178-88.101l1.681-3.171h56.057l-3.396 8.242c-10.207 24.774-28.017 49.005-51.503 70.069-18.482 16.576-40.38 31.149-63.423 42.224 22.688 14.728 41.968 34.593 55.835 57.548 16.476 27.269 25.185 58.595 25.185 90.589 0 97.817-79.58 177.394-177.395 177.394-97.821 0-177.402-79.579-177.402-177.394 0-32.061 8.743-63.444 25.286-90.752 13.928-22.999 33.288-42.879 56.063-57.595-22.959-11.093-44.764-25.652-63.158-42.179-23.408-21.028-41.16-45.2-51.336-69.904zM548.723 563.969c69.366 0 125.799-56.434 125.799-125.803 0-69.366-56.432-125.798-125.799-125.798-69.368 0-125.803 56.431-125.803 125.798 0 69.369 56.435 125.803 125.803 125.803zM848.424 832.749h-599.407c-52.319 0-94.881-42.561-94.881-94.88v-71.012h50.908v60.41c0 35.955 19.006 54.962 54.966 54.962h578.356c35.955 0 54.96-19.006 54.96-54.962v-672.747c0-35.96-19.003-54.968-54.96-54.968h-578.357c-35.959 0-54.966 19.006-54.966 54.968v60.401h-50.908v-69.968c0-52.32 42.562-94.883 94.881-94.883h599.408c52.319 0 94.883 42.563 94.883 94.883v692.92c0 52.314-42.564 94.877-94.883 94.877z"  horiz-adv-x="1024" />

    
    <glyph glyph-name="jilu" unicode="&#58898;" d="M896 510.877V704.16C896 774.59 838.448 832 767.454 832H256.546C185.725 832 128 774.525 128 703.625v-639.25C128-6.588 185.516-64 256.465-64h125.489v64h-125.49C220.826 0 192 28.795 192 64.375v639.25C192 739.086 220.979 768 256.546 768h510.908C803.106 768 832 739.238 832 704.16v-193.283h64zM793.274 403.565h90.51L517.728 37.511l-45.255 45.254 63.54-7.66-7.143-59.244c-1.391-11.542 0.929-13.853 12.463-12.463l59.244 7.143 7.66-63.54-45.255 45.255L929.038 358.31v-90.51L793.274 403.565z m45.255 45.255l135.764-135.764L608.238-53l-59.244-7.142c-52.54-6.335-90.046 30.714-83.663 83.662l7.143 59.244L838.529 448.82zM352 576h320c17.673 0 32 14.327 32 32 0 17.673-14.327 32-32 32H352c-17.673 0-32-14.327-32-32 0-17.673 14.327-32 32-32z m0-192h256c17.673 0 32 14.327 32 32 0 17.673-14.327 32-32 32H352c-17.673 0-32-14.327-32-32 0-17.673 14.327-32 32-32z m0-192h64c17.673 0 32 14.327 32 32 0 17.673-14.327 32-32 32h-64c-17.673 0-32-14.327-32-32 0-17.673 14.327-32 32-32z"  horiz-adv-x="1024" />

    
    <glyph glyph-name="shangpin" unicode="&#58913;" d="M512 384c-97.536 0-178.92864 70.42048-196.0192 163.09248a44.29824 44.29824 0 1 1-69.74976 36.23424 44.28288 44.28288 0 0 1 25.472-40.0896c19.1744-115.32288 119.62368-203.52512 240.3072-203.52512 120.67328 0 221.12256 88.20224 240.3072 203.52512a44.28288 44.28288 0 0 1 25.46176 40.0896 44.288 44.288 0 0 1-44.288 44.29824 44.29824 44.29824 0 0 1-44.29824-44.29824 44.22656 44.22656 0 0 1 18.8416-36.23424C690.92864 454.41536 609.55136 384 512 384z m310.07232 398.66368H642.0992c0.01536-0.06656 0.03584-0.128 0.04608-0.19456a22.12864 22.12864 0 0 1 0-43.91424l-0.04608-0.18944h179.97312c24.4224 0 44.29824-19.88096 44.29824-44.29312v-620.14464c0-24.4224-19.88096-44.288-44.29824-44.288H201.9328c-24.4224 0-44.29312 19.87072-44.29312 44.288V694.07232c0 24.41216 19.87584 44.29312 44.29312 44.29312h157.824l-0.04096 0.18944a22.12864 22.12864 0 0 1 0 43.91424l0.04096 0.19456H201.87648c-48.83456-0.03072-88.53504-39.75168-88.53504-88.59136V73.9328c0-48.86016 39.7312-88.59136 88.59136-88.59136h620.13952c48.86016 0 88.59136 39.7312 88.59136 88.59136V694.07232c-0.00512 48.86016-39.7312 88.59136-88.59136 88.59136z"  horiz-adv-x="1024" />

    
    <glyph glyph-name="adduser" unicode="&#58902;" d="M747.2-15.360000000000014q-40.32 0-76.32 15.36T608 42.24000000000001t-42.24 62.88-15.36 76.32 15.36 76.32 42.24 62.4 62.88 41.76 76.32 15.36 76.32-15.36 62.4-41.76 41.76-62.4 15.36-76.32-15.36-76.32-41.76-62.88-62.4-42.24-76.32-15.36z m96.96 228.48h-71.04v66.24q0 13.44-8.64 23.04T742.4 312t-21.12-9.6-7.68-23.04v-66.24h-62.4q-13.44 0-23.04-9.6t-9.6-23.04 9.6-20.16 23.04-6.72h62.4v-68.16q0-13.44 7.68-23.04t21.12-9.6 22.08 9.6 8.64 23.04V153.60000000000002h71.04v-1.92q13.44 0 23.04 7.68t9.6 21.12-9.6 23.04-23.04 9.6zM607.04 452.16q-3.84-15.36-7.68-27.84-3.84-10.56-9.6-21.6t-12.48-16.8q-8.64-6.72-12-14.4t-5.76-15.84-5.28-16.8-9.6-17.28q-22.08-28.8-33.12-55.68t-15.36-51.84-2.4-49.44 7.68-47.52q3.84-17.28 11.52-36t22.56-38.4 37.92-38.4 57.6-36q-23.04-4.8-53.76-8.64-25.92-2.88-63.84-5.28t-86.88-2.4q-24.96 0-58.08 1.92t-68.16 4.8-69.12 6.72-62.4 8.16-48 9.12-24.48 8.64q-8.64 7.68-13.44 42.72t2.88 91.68q4.8 31.68 25.44 48.48t48.48 26.4 58.08 17.76 53.28 22.56q18.24 11.52 27.84 21.6t13.44 20.64 3.84 22.08-0.96 24.96q-1.92 20.16-13.92 31.68t-25.44 23.04q-7.68 5.76-13.44 17.28t-9.6 22.08q-4.8 12.48-7.68 27.84-6.72 1.92-12.48 5.76-4.8 3.84-10.56 11.52t-10.56 23.04q-4.8 14.4-3.36 26.88t5.28 21.12q3.84 10.56 10.56 18.24 0 32.64 3.84 65.28 3.84 27.84 12 59.52t26.4 56.64q17.28 24 36.96 39.36t40.8 24 42.24 12 40.32 3.36q24.96 0 48-5.76t42.72-15.36 35.04-21.6 24.96-24.48q22.08-27.84 32.16-61.44t14.88-63.36q4.8-34.56 3.84-69.12 5.76-4.8 9.6-11.52 3.84-5.76 5.76-15.36t0-24q-1.92-18.24-7.68-28.8t-12.48-16.32q-7.68-6.72-16.32-9.6z"  horiz-adv-x="1024" />

    
    <glyph glyph-name="wodeqianbao" unicode="&#58909;" d="M106.665984 789.610496h682.665984v-21.348352H106.665984V789.610496z m0-42.696704h682.665984V725.56544H106.665984V746.913792zM768 341.303296c-11.776 0-21.334016-9.56416-21.334016-21.348352s9.558016-21.348352 21.334016-21.348352 21.334016 9.56416 21.334016 21.348352c0 11.78624-9.558016 21.348352-21.334016 21.348352z m0-64.043008c-23.57248 0-42.665984 19.105792-42.665984 42.696704 0 23.588864 19.093504 42.696704 42.665984 42.696704s42.665984-19.105792 42.665984-42.696704c0-23.590912-19.093504-42.696704-42.665984-42.696704zM981.334016 384c0 11.784192-9.558016 21.348352-21.334016 21.348352h-256c-11.776 0-21.334016-9.56416-21.334016-21.348352v-128.088064c0-11.784192 9.558016-21.348352 21.334016-21.348352h256c11.776 0 21.334016 9.56416 21.334016 21.348352V384z m-42.668032 170.78272v64.043008c0 23.545856-19.136512 42.696704-42.665984 42.696704H85.334016c-15.616 0-30.081024 4.503552-42.665984 11.84768v-673.634304c0-23.545856 19.136512-42.696704 42.665984-42.696704H896c23.53152 0 42.665984 19.1488 42.665984 42.696704v192.131072H704c-35.34848 0-64 28.669952-64 64.043008V384c0 35.373056 28.65152 64.043008 64 64.043008h234.665984V554.78272zM853.334016 768.262144c0 23.545856-19.136512 42.696704-42.665984 42.696704H85.334016c-23.53152 0-42.665984-19.1488-42.665984-42.696704v-21.348352c0-23.545856 19.136512-42.696704 42.665984-42.696704h768V768.262144z m128-572.465152v-196.059136c0-47.157248-38.207488-85.39136-85.334016-85.39136H85.334016C38.207488-85.653504 0-47.419392 0-0.262144V768.262144c0 47.157248 38.207488 85.39136 85.334016 85.39136h725.334016c47.12448 0 85.334016-38.234112 85.334016-85.39136v-64.043008c47.12448 0 85.334016-38.234112 85.334016-85.39136v-174.710784C1006.143488 435.298304 1024 411.838464 1024 384v-128.088064c0-27.836416-17.856512-51.298304-42.665984-60.114944z"  horiz-adv-x="1024" />

    
    <glyph glyph-name="yzm" unicode="&#58888;" d="M806.302 261.446c-84.816 0-153.574-68.753-153.574-153.574 0-84.814 68.758-153.574 153.574-153.574s153.574 68.76 153.574 153.574c0 84.822-68.758 153.574-153.574 153.574zM883.086 31.085c0-15.603-11.915-25.591-25.593-25.591h-102.382c-14.119 0-25.593 12.127-25.593 25.591v76.787c0 15.841 11.695 25.598 25.593 25.598v25.591c0 26.374 22.934 51.197 51.191 51.197 28.26 0 48.867-19.135 48.867-45.501v-15.17c0-4.743-4.364-7.584-10.036-7.584s-10.906 1.897-10.906 7.584v15.171c0 11.334-12.099 21.626-27.999 21.626s-25.521-15.979-25.521-27.321v-25.591h76.787c14.257 0 25.593-10.236 25.593-25.598v-76.789zM571.433 337.665l17.625 16.338 91.307-84.67c34.735 27.131 78.445 43.303 125.936 43.303 10.38 0 20.578-0.779 30.543-2.27v245.431c0 61.752-27.408 89.585-89.17 89.585h-594.48c-63.362 0-89.17-27.833-89.17-89.585v-358.34c0-61.432 28.593-89.577 89.17-89.577h448.342c0.002 56.929 23.243 108.424 60.747 145.536l-90.85 84.249zM130.197 152.9l-17.63 16.34 199.244 184.762 17.63-16.338-199.244-184.764zM428.968 306.955l-316.644 264.964 30.674 28.675 307.44-264.276 307.44 264.276 30.669-28.675-316.642-264.964h-42.937z"  horiz-adv-x="1024" />

    
    <glyph glyph-name="yitongguodedingdan" unicode="&#59016;" d="M665.6 665.6H262.4c-19.2 0-32-12.8-32-32s12.8-32 32-32h396.8c19.2 0 32 12.8 32 32s-12.8 32-25.6 32zM665.6 467.2H262.4c-19.2 0-32-12.8-32-32s12.8-32 32-32h396.8c19.2 0 32 12.8 32 32s-12.8 32-25.6 32zM460.8 268.8H262.4c-19.2 0-32-12.8-32-32s12.8-32 32-32h198.4c19.2 0 32 12.8 32 32s-12.8 32-32 32zM985.6 224c-12.8 12.8-32 12.8-44.8 0l-243.2-243.2-153.6 153.6c-12.8 12.8-32 12.8-44.8 0s-12.8-32 0-44.8l172.8-172.8h6.4v-6.4c12.8-12.8 32-12.8 44.8 0l262.4 262.4c6.4 19.2 6.4 38.4 0 51.2zM371.2-32H166.4c-38.4 0-70.4 32-70.4 70.4V736c0 32 32 64 70.4 64H768c38.4 0 70.4-32 70.4-64V384c0-19.2 12.8-32 32-32s25.6 12.8 25.6 32V736c0 70.4-57.6 134.4-134.4 134.4H166.4C96 870.4 32 812.8 32 736v-697.6c0-70.4 57.6-134.4 134.4-134.4h204.8c19.2 0 32 12.8 32 32s-12.8 32-32 32z"  horiz-adv-x="1024" />

    
    <glyph glyph-name="right1" unicode="&#58943;" d="M76 380.4c-15.6 15.2-16 40.3-0.8 55.9 15.2 15.6 40.2 16 55.9 0.8l263.8-256.6 497.9 490.5c15.6 15.3 40.6 15.1 55.9-0.5s15.1-40.6-0.5-55.9l-525.5-517.6c-15.3-15-39.8-15.2-55.3-0.2l-291.4 283.6z"  horiz-adv-x="1024" />

    
    <glyph glyph-name="zhuyi" unicode="&#59078;" d="M512 273.31712c-14.5536 0-26.35264 11.79904-26.35264 26.35264v337.3184c0 14.5536 11.79904 26.35264 26.35264 26.35264s26.35264-11.79904 26.35264-26.35264v-337.3184c0-14.5536-11.79904-26.35264-26.35264-26.35264zM512 102.55104c-14.5536 0-26.35264 11.79904-26.35264 26.35264v2.10816c0 14.5536 11.79904 26.35264 26.35264 26.35264s26.35264-11.79904 26.35264-26.35264v-2.10816c0-14.5536-11.79904-26.35264-26.35264-26.35264zM512-64c-60.46848 0-119.14112 11.84896-174.38976 35.21664-53.3504 22.56512-101.25952 54.86336-142.3936 95.99872s-73.4336 89.04448-96 142.39488C75.84896 264.85888 64 323.53152 64 384c0 60.4672 11.84896 119.14112 35.21664 174.38976 22.5664 53.3504 54.86464 101.25952 96 142.3936 41.13536 41.13536 89.0432 73.4336 142.3936 96C392.85888 820.15232 451.53152 832 512 832c60.4672 0 119.13984-11.84768 174.38976-35.21664 53.3504-22.5664 101.25952-54.86336 142.39488-96 41.13536-41.13536 73.4336-89.0432 95.99872-142.3936C948.15104 503.14112 960 444.46848 960 384s-11.84896-119.14112-35.21664-174.38976c-22.56512-53.3504-54.86336-101.25952-95.99872-142.39488-41.13408-41.13536-89.04448-73.4336-142.39488-95.99872C631.13984-52.15104 572.4672-64 512-64z m0 843.29472c-105.58592 0-204.85376-41.11872-279.51488-115.77984C157.824 588.85376 116.70528 489.58592 116.70528 384s41.11872-204.85376 115.77856-279.51488S406.41408-11.29472 512-11.29472s204.85376 41.11872 279.51488 115.77984C866.176 179.14624 907.29472 278.41408 907.29472 384S866.176 588.85376 791.51488 663.51488C716.85376 738.176 617.58592 779.29472 512 779.29472z"  horiz-adv-x="1024" />

    
    <glyph glyph-name="tip" unicode="&#59011;" d="M512 896c-282.778 0-512-229.222-512-512s229.222-512 512-512 512 229.222 512 512-229.222 512-512 512zM512 99.533c-31.43 0-56.909 25.479-56.909 56.909s25.479 56.909 56.909 56.909c31.43 0 56.909-25.479 56.909-56.909 0-31.43-25.479-56.909-56.909-56.909zM566.272 327.27c-2.089-29.363-24.893-52.802-53.779-55.866 2.067-0.198 3.91-1.171 6.010-1.171h-11.827c2.048 0 3.84 0.973 5.837 1.178-29.059 3.007-51.724 26.671-53.15 55.912l-13.052 284.107c-0.047 0.842-0.073 1.827-0.073 2.818 0 29.974 24.298 54.272 54.272 54.272 0.152 0 0.303-0.001 0.455-0.002l26.242 0c0.331 0.007 0.721 0.012 1.112 0.012 29.408 0 53.248-23.84 53.248-53.248 0-1.355-0.051-2.699-0.15-4.029l-15.196-283.983z"  horiz-adv-x="1024" />

    
    <glyph glyph-name="shangla" unicode="&#58975;" d="M440.281-37.65c0 37.266 30.234 68.203 68.203 68.203 37.266 0 68.203-30.234 68.203-68.203 0-37.266-30.234-68.203-68.203-68.203-37.266 0.703-68.203 30.938-68.203 68.203zM372.781 132.506v22.5c0 18.984 15.469 33.75 33.75 33.75h203.906c18.984 0 33.75-15.469 33.75-33.75v-22.5c0-18.984-15.469-33.75-33.75-33.75h-203.906c-18.984 0-33.75 14.766-33.75 33.75zM327.078 291.412v22.5c0 18.984 15.469 33.75 33.75 33.75h294.609c18.984 0 33.75-15.469 33.75-33.75v-22.5c0-18.984-15.469-33.75-33.75-33.75h-294.609c-18.281-0.703-33.75 14.766-33.75 33.75zM621.688 649.303c91.406-104.063 204.609-233.438 204.609-233.438h-634.922s114.609 131.484 206.016 235.547c142.734 161.719 73.828 170.156 224.297-2.109z"  horiz-adv-x="1024" />

    
    <glyph glyph-name="nav3-active" unicode="&#58881;" d="M619.789 313.937h-215.579c-183.242 0-332.351-152.702-332.351-343.13v-21.558c0-77.249 149.109-77.249 332.351-77.249h215.579c183.242 0 332.351 3.593 332.351 77.249v21.558c0 190.428-149.109 343.13-332.351 343.13zM251.509 635.509c0-143.719 116.772-260.491 260.491-260.491s260.491 116.772 260.491 260.491-116.772 260.491-260.491 260.491-260.491-116.772-260.491-260.491z"  horiz-adv-x="1024" />

    
    <glyph glyph-name="exchange" unicode="&#58882;" d="M512 896C228.894118 896 0 667.105882 0 384S228.894118-128 512-128 1024 100.894118 1024 384 795.105882 896 512 896m295.152941-604.360784c0-2.007843 0-2.007843-2.007843-4.015687 0-2.007843-2.007843-2.007843-2.007843-4.015686s-2.007843-2.007843-4.015686-4.015686L692.705882 173.176471c-10.039216-10.039216-26.101961-10.039216-36.141176 0-4.015686 4.015686-8.031373 12.047059-8.031373 18.070588s2.007843 14.054902 8.031373 18.070588L722.823529 273.568627H240.941176c-14.054902 0-26.101961 12.047059-26.10196 26.101961 0 14.054902 12.047059 26.101961 26.10196 26.101961h542.117648c6.023529 0 12.047059-2.007843 18.070588-8.031373 2.007843-2.007843 4.015686-6.023529 6.023529-8.031372l2.007843-10.039216c0-4.015686 0-6.023529-2.007843-8.031372M783.058824 450.258824H240.941176c-4.015686 0-6.023529 0-10.039215 2.007843-2.007843 0-4.015686 2.007843-4.015686 2.007843-2.007843 0-2.007843 2.007843-4.015687 4.015686s-4.015686 6.023529-6.023529 8.031373l-2.007843 8.031372c0 2.007843 0 4.015686 2.007843 6.02353 0 2.007843 0 2.007843 2.007843 4.015686s2.007843 6.023529 6.023529 8.031372l108.42353 108.42353c10.039216 10.039216 26.101961 10.039216 36.141176 0s10.039216-26.101961 0-36.141177L301.176471 500.454902h481.882353c14.054902 0 26.101961-12.047059 26.10196-26.101961 0-14.054902-12.047059-24.094118-26.10196-24.094117M222.870588 474.352941"  horiz-adv-x="1024" />

    
    <glyph glyph-name="nav2" unicode="&#58883;" d="M419.081 234.193c18.963 0 39.822 0 58.785 1.896 15.17 1.896 26.548 15.17 26.548 30.341-1.896 15.17-15.17 26.548-30.341 26.548-17.067-1.896-36.030-1.896-53.096-1.896-172.563-1.896-318.578 70.163-318.578 151.704v130.844c66.37-58.785 182.044-96.711 316.681-96.711s252.207 37.926 316.681 96.711v-102.4c0-15.17 13.274-28.444 28.444-28.444s28.444 13.274 28.444 28.444v219.97c-5.689 115.674-166.874 204.8-373.57 204.8-208.593 0-373.57-92.919-373.57-210.489v-515.793c0-117.57 164.978-210.489 373.57-210.489 18.963 0 39.822 0 58.785 1.896 15.17 1.896 26.548 15.17 26.548 30.341-1.896 15.17-15.17 26.548-30.341 26.548-17.067-1.896-36.030-1.896-53.096-1.896-172.563 1.896-318.578 72.059-318.578 155.496v159.289c66.37-58.785 182.044-96.711 316.681-96.711zM102.4 685.511c0 83.437 146.015 153.6 316.681 153.6 172.563 0 316.681-70.163 316.681-153.6 0-83.437-146.015-153.6-316.681-153.6s-314.785 70.163-316.681 153.6zM974.696 139.378c0 1.896 0 1.896 0 0v136.533c-5.689 68.267-94.815 119.467-210.489 119.467-117.57 0-206.696-51.2-210.489-119.467v-284.444c3.793-68.267 92.919-119.467 212.385-119.467 121.363 0 212.385 53.096 212.385 125.156v142.222zM762.311 338.489c89.126 0 155.496-36.030 155.496-68.267s-66.37-68.267-155.496-68.267c-89.126 0-155.496 36.030-155.496 68.267 0 32.237 66.37 68.267 155.496 68.267zM606.815 182.993c37.926-22.756 92.919-37.926 155.496-37.926 62.578 0 117.57 15.17 155.496 37.926v-43.615c-1.896-32.237-66.37-66.37-155.496-66.37-89.126 0-155.496 36.030-155.496 68.267v41.719zM762.311-71.111c-89.126 0-155.496 36.030-155.496 68.267v58.785c37.926-22.756 92.919-37.926 155.496-37.926 62.578 0 117.57 15.17 155.496 37.926v-58.785c0-32.237-66.37-68.267-155.496-68.267z"  horiz-adv-x="1024" />

    
    <glyph glyph-name="nav2-active" unicode="&#58884;" d="M420.030 234.193c18.963 0 39.822 0 58.785 1.896 15.17 1.896 26.548 15.17 26.548 30.341-1.896 15.17-15.17 26.548-30.341 26.548-17.067-1.896-36.030-1.896-53.096-1.896-172.563-1.896-318.578 70.163-318.578 151.704v130.844c66.37-58.785 182.044-96.711 316.681-96.711s252.207 37.926 316.681 96.711v-102.4c0-15.17 13.274-28.444 28.444-28.444s28.444 13.274 28.444 28.444v219.97c-5.689 115.674-166.874 204.8-373.57 204.8-208.593 0-373.57-92.919-373.57-210.489v-515.793c0-117.57 164.978-210.489 373.57-210.489 18.963 0 39.822 0 58.785 1.896 15.17 1.896 26.548 15.17 26.548 30.341-1.896 15.17-15.17 26.548-30.341 26.548-17.067-1.896-36.030-1.896-53.096-1.896-172.563 1.896-318.578 72.059-318.578 155.496v159.289c66.37-58.785 182.044-96.711 316.681-96.711zM103.348 685.511c0 83.437 146.015 153.6 316.681 153.6 172.563 0 316.681-70.163 316.681-153.6 0-83.437-146.015-153.6-316.681-153.6s-314.785 70.163-316.681 153.6zM975.644 139.378c0 1.896 0 1.896 0 0v136.533c-5.689 68.267-94.815 119.467-210.489 119.467-117.57 0-206.696-51.2-212.385-119.467v-284.444c3.793-68.267 92.919-119.467 212.385-119.467 121.363 0 212.385 53.096 212.385 125.156v142.222zM763.259 338.489c89.126 0 155.496-36.030 155.496-68.267 0-32.237-66.37-68.267-155.496-68.267s-155.496 36.030-155.496 68.267c0 32.237 66.37 68.267 155.496 68.267zM607.763 182.993c37.926-22.756 92.919-37.926 155.496-37.926 62.578 0 117.57 15.17 155.496 37.926v-43.615c-1.896-32.237-66.37-66.37-155.496-66.37-89.126 0-155.496 36.030-155.496 68.267v41.719zM763.259-71.111c-89.126 0-155.496 36.030-155.496 68.267v58.785c37.926-22.756 92.919-37.926 155.496-37.926 62.578 0 117.57 15.17 155.496 37.926v-58.785c0-32.237-66.37-68.267-155.496-68.267zM757.57 365.037c98.607 0 180.148-37.926 180.148-85.333s-81.541-85.333-180.148-85.333-180.148 37.926-180.148 85.333 81.541 85.333 180.148 85.333zM416.237 858.074c193.422 0 350.815-75.852 350.815-170.667s-157.393-170.667-350.815-170.667-350.815 75.852-350.815 170.667 157.393 170.667 350.815 170.667z"  horiz-adv-x="1024" />

    
    <glyph glyph-name="offer" unicode="&#58885;" d="M275.549091 71.214545L130.327273-23.738182c-5.585455-9.309091-33.512727-20.48-44.683637-20.48-22.341818 0-22.341818 3.723636-22.341818 24.203637 0 1.861818 0 3.723636 1.861818 5.585454h-1.861818V765.672727c0 37.236364 31.650909 68.887273 68.887273 68.887273h633.018182c37.236364 0 68.887273-29.789091 68.887272-68.887273v-381.672727h63.301819V760.087273c0 74.472727-61.44 135.912727-137.774546 135.912727H137.774545C61.44 896 0 834.56 0 760.087273v-819.2c0-37.236364 31.650909-68.887273 68.887273-68.887273 11.170909 0 22.341818 3.723636 31.650909 7.447273l210.385454 128.465454h310.923637v61.44H275.549091zM446.836364 527.36l-137.774546 154.530909-46.545454-40.96 141.498181-152.669091h-128.465454v-55.854545h141.498182v-68.887273h-141.498182v-55.854545h141.498182v-93.09091h61.44v93.09091h141.498182v55.854545h-141.498182V430.545455h141.498182v55.854545H484.072727l147.083637 156.392727-39.098182 40.96-145.221818-156.392727z m422.632727-173.149091c-126.603636 0-229.003636-100.538182-229.003636-227.141818 0-124.741818 102.4-227.141818 229.003636-227.141818S1098.472727 2.327273 1098.472727 127.069091c0 124.741818-102.4 227.141818-229.003636 227.141818z m0-400.290909c-96.814545 0-175.010909 76.334545-175.010909 173.149091 0 94.952727 78.196364 173.149091 175.010909 173.149091s175.010909-76.334545 175.010909-173.149091c0-94.952727-78.196364-173.149091-175.010909-173.149091z m107.985454 262.516364c-11.170909 11.170909-29.789091 9.309091-40.96-1.861819l-104.261818-111.70909-46.545454 35.374545c-13.032727 9.309091-31.650909 9.309091-42.821818-3.723636-11.170909-11.170909-9.309091-27.927273 1.861818-37.236364l81.92-65.163636c5.585455-5.585455 14.894545-3.723636 20.48 1.861818l128.465454 141.498182c13.032727 13.032727 13.032727 29.789091 1.861818 40.96z"  horiz-adv-x="1098" />

    
    <glyph glyph-name="tips" unicode="&#58886;" d="M512 896C229.098305 896 0 666.901695 0 384S229.098305-128 512-128 1024 101.098305 1024 384 794.901695 896 512 896z m0-786.223729c-32.976271 0-59.010169 26.033898-59.010169 59.01017s26.033898 59.010169 59.010169 59.010169 59.010169-26.033898 59.010169-59.010169-26.033898-59.010169-59.010169-59.01017z m59.010169 258.60339c0-32.976271-26.033898-59.010169-59.010169-59.010169s-59.010169 26.033898-59.010169 59.010169v277.694915c0 32.976271 26.033898 59.010169 59.010169 59.01017s59.010169-26.033898 59.010169-59.01017v-277.694915z"  horiz-adv-x="1024" />

    
    <glyph glyph-name="wallet" unicode="&#58887;" d="M208.815686 765.490196c-90.352941 0-112.439216 20.078431-114.447059 46.180392 2.007843 18.070588 52.203922 32.12549 82.321569 32.12549h594.321569c22.086275 0 42.164706-6.023529 62.243137-16.062745-20.078431 40.156863-62.243137 68.266667-110.431373 68.266667H128.501961C58.227451 896 0 835.764706 0 761.47451v-682.666667c46.180392-162.635294 172.67451-194.760784 214.839216-200.784314 12.047059-4.015686 24.094118-6.023529 38.149019-6.023529h594.321569c70.27451 0 128.501961 60.235294 128.501961 134.52549v128.501961H544.12549c-116.454902 2.007843-146.572549 82.321569-146.572549 184.721569s32.12549 184.721569 150.588235 184.721568h427.670589v128.501961c0 72.282353-58.227451 134.52549-128.501961 134.52549H208.815686v-2.007843z m329.286275-315.231372c-46.180392 0-88.345098-58.227451-88.345098-130.509804s42.164706-130.509804 88.345098-130.509804h449.756863c20.078431 0 36.141176 22.086275 36.141176 40.156862v182.713726c0 18.070588-14.054902 40.156863-36.141176 40.156863l-449.756863-2.007843z m-16.062745-132.517648c0 44.172549 36.141176 82.321569 78.305882 82.321569s78.305882-38.14902 78.305882-82.321569c0-44.172549-34.133333-80.313725-76.298039-80.313725-42.164706 0-80.313725 38.14902-80.313725 80.313725z"  horiz-adv-x="1024" />

    
    <glyph glyph-name="track" unicode="&#58889;" d="M930.742857 896H166.4C74.971429 896 0 822.857143 0 735.085714v-702.171428C0-54.857143 74.971429-128 166.4-128h764.342857c91.428571 0 166.4 73.142857 166.4 160.914286V735.085714C1097.142857 822.857143 1027.657143 896 930.742857 896z m85.942857-868.571429c0-47.542857-38.4-82.285714-85.942857-82.285714H166.4c-47.542857 0-85.942857 36.571429-85.942857 82.285714V735.085714c0 47.542857 38.4 82.285714 85.942857 82.285715h764.342857c47.542857 0 85.942857-36.571429 85.942857-82.285715v-707.657143zM404.114286 641.828571l-118.857143-115.2-53.028572 51.2c-16.457143 16.457143-43.885714 16.457143-53.028571 0-16.457143-16.457143-16.457143-42.057143 0-51.2l85.942857-82.285714c5.485714-5.485714 16.457143-10.971429 32.914286-10.971428s16.457143 5.485714 32.914286 10.971428L475.428571 585.142857c16.457143 16.457143 16.457143 42.057143 0 51.2-34.742857 14.628571-56.685714 14.628571-71.314285 5.485714z m493.714285-62.171428H526.628571c-27.428571 0-38.4-16.457143-38.4-36.571429 0-25.6 16.457143-36.571429 38.4-36.571428h371.2c27.428571 0 38.4 16.457143 38.4 36.571428s-16.457143 36.571429-38.4 36.571429zM307.2 345.6c-69.485714 0-124.342857-51.2-124.342857-118.857143s53.028571-118.857143 124.342857-118.857143 124.342857 51.2 124.342857 118.857143c-1.828571 71.314286-60.342857 118.857143-124.342857 118.857143z m0-157.257143c-27.428571 0-43.885714 16.457143-43.885714 42.057143s16.457143 42.057143 43.885714 42.057143 43.885714-16.457143 43.885714-42.057143c-1.828571-25.6-23.771429-42.057143-43.885714-42.057143z m590.628571 78.628572H526.628571c-27.428571 0-38.4-16.457143-38.4-36.571429s16.457143-36.571429 38.4-36.571429h371.2c27.428571 0 38.4 16.457143 38.4 36.571429 0 21.942857-16.457143 36.571429-38.4 36.571429z"  horiz-adv-x="1097" />

    
    <glyph glyph-name="waiting" unicode="&#58890;" d="M512-128C229.451852-128 0 101.451852 0 384S229.451852 896 512 896s512-229.451852 512-512c0-37.925926-3.792593-75.851852-13.274074-111.881481-3.792593-20.859259-26.548148-34.133333-47.407407-30.340741-20.859259 3.792593-34.133333 26.548148-30.340741 47.407407 7.585185 30.340741 11.377778 62.577778 11.377778 94.814815C946.251852 622.933333 750.933333 818.251852 512 818.251852 273.066667 818.251852 77.748148 622.933333 77.748148 384c0-238.933333 195.318519-434.251852 434.251852-434.251852 41.718519 0 81.540741 5.688889 121.362963 17.066667 20.859259 5.688889 41.718519-5.688889 49.303704-26.548148 5.688889-20.859259-5.688889-41.718519-26.548148-49.303704-47.407407-11.377778-94.814815-18.962963-144.118519-18.962963m235.140741 244.622222c-9.481481 0-18.962963 3.792593-26.548148 9.481482l-257.896297 227.555555c-7.585185 7.585185-13.274074 18.962963-13.274074 30.340741V658.962963c0 20.859259 17.066667 39.822222 39.822222 39.822222 20.859259 0 39.822222-17.066667 39.822223-39.822222V402.962963l244.622222-216.177778c17.066667-15.17037 17.066667-39.822222 3.792592-54.992592-7.585185-11.377778-18.962963-15.17037-30.34074-15.170371m64.474074-87.229629c0-17.066667 7.585185-32.237037 18.962963-43.614815 11.377778-11.377778 28.444444-18.962963 43.614815-18.962963 17.066667 0 32.237037 7.585185 43.614814 18.962963 11.377778 11.377778 18.962963 28.444444 18.962963 43.614815 0 17.066667-7.585185 32.237037-18.962963 43.614814-11.377778 11.377778-28.444444 18.962963-43.614814 18.962963-17.066667 0-32.237037-7.585185-43.614815-18.962963-11.377778-9.481481-18.962963-26.548148-18.962963-43.614814m0 0"  horiz-adv-x="1024" />

    
    <glyph glyph-name="sertice" unicode="&#58891;" d="M1080.685714 515.657143C1033.142857 731.428571 839.314286 896 601.6 896 365.714286 896 170.057143 731.428571 124.342857 515.657143 51.2 499.2 0 438.857143 0 365.714286c0-82.285714 71.314286-153.6 153.6-153.6h16.457143c10.971429-5.485714 25.6-10.971429 40.228571 0 20.114286 10.971429 31.085714 36.571429 20.114286 56.685714-20.114286 45.714286-31.085714 102.4-31.085714 153.6 1.828571 217.6 181.028571 391.314286 402.285714 391.314286s402.285714-173.714286 402.285714-391.314286c0-181.028571-124.342857-329.142857-292.571428-374.857143-20.114286 16.457143-45.714286 31.085714-71.314286 31.085714h-82.285714c-56.685714 0-107.885714-45.714286-107.885715-102.4s45.714286-102.4 107.885715-102.4H640c56.685714 0 102.4 45.714286 107.885714 102.4 133.485714 36.571429 241.371429 128 298.057143 252.342858 82.285714 5.485714 144.457143 71.314286 144.457143 148.114285-1.828571 62.171429-49.371429 118.857143-109.714286 138.971429zM808.228571 288.914286c31.085714 25.6 51.2 51.2 67.657143 67.657143 10.971429 20.114286 5.485714 45.714286-16.457143 56.685714-20.114286 10.971429-45.714286 5.485714-56.685714-16.457143-5.485714-10.971429-20.114286-25.6-40.228571-40.228571-40.228571-31.085714-87.771429-45.714286-148.114286-45.714286-62.171429 0-113.371429 16.457143-148.114286 45.714286-20.114286 16.457143-36.571429 36.571429-40.228571 40.228571-10.971429 20.114286-36.571429 25.6-56.685714 16.457143-20.114286-10.971429-25.6-36.571429-16.457143-56.685714 10.971429-20.114286 31.085714-40.228571 67.657143-67.657143 51.2-40.228571 118.857143-62.171429 201.142857-62.171429 76.8 1.828571 133.485714 21.942857 186.514285 62.171429z"  horiz-adv-x="1190" />

    
    <glyph glyph-name="none" unicode="&#58900;" d="M790.682 790.221h-34.372c-0 0-0 0-0 0-14.138 0-25.6-11.462-25.6-25.6 0-14.138 11.462-25.6 25.6-25.6 0 0 0 0 0 0h34.372c46.174-0.068 83.586-37.486 83.644-83.655l0-567.95c-0.049-46.189-37.474-83.62-83.655-83.678l-553.716-0c-46.187 0.068-83.61 37.491-83.678 83.671l-0 567.951c0 46.131 37.547 83.661 83.678 83.661h34.372c14.138 0 25.6 11.462 25.6 25.6 0 14.138-11.462 25.6-25.6 25.6h-34.372c-74.377 0-134.878-60.501-134.878-134.861v-567.945c0-74.377 60.501-134.878 134.878-134.878h553.728c74.359 0 134.861 60.501 134.861 134.878v567.945c0 74.359-60.501 134.861-134.861 134.861M434.893 722.688h155.733c25.921 0 46.933 21.013 46.933 46.933s-21.013 46.933-46.933 46.933h-155.733c-25.921 0-46.933-21.013-46.933-46.933s21.013-46.933 46.933-46.933M286.618 549.888c0-14.138 11.462-25.6 25.6-25.6 0 0 0 0 0 0h394.667c0-0 0-0 0-0 14.138 0 25.6 11.462 25.6 25.6 0 14.138-11.462 25.6-25.6 25.6-0 0-0 0-0 0h-394.667c0 0 0 0 0 0-14.138 0-25.6-11.462-25.6-25.6 0 0 0 0 0 0M706.884 417.621h-394.667c-0 0-0 0-0 0-14.138 0-25.6-11.462-25.6-25.6 0-14.138 11.462-25.6 25.6-25.6 0 0 0 0 0 0h394.667c0 0 0 0 0 0 14.138 0 25.6 11.462 25.6 25.6 0 14.138-11.462 25.6-25.6 25.6-0 0-0 0-0 0M706.884 259.755h-394.667c-0 0-0 0-0 0-14.138 0-25.6-11.462-25.6-25.6 0-14.138 11.462-25.6 25.6-25.6 0 0 0 0 0 0h394.667c0 0 0 0 0 0 14.138 0 25.6 11.462 25.6 25.6 0 14.138-11.462 25.6-25.6 25.6-0 0-0 0-0 0z"  horiz-adv-x="1024" />

    
    <glyph glyph-name="order" unicode="&#58894;" d="M837.4634149999999 864H186.536585C128 864 78.82926874999998 814.82926875 78.82926874999998 753.951219375v-737.5609753125C78.82926874999998-46.82926874999998 128-96 186.536585-96h650.92683c58.536585 0 107.7073171875 49.17073125 107.70731625 110.048780625V753.951219375C945.17073125 814.82926875 896 864 837.4634149999999 864z m35.121950625-849.951219375c0-9.365853750000001-4.682926875000001-18.731707500000002-11.7073171875-25.756097812500002-7.0243903125000005-7.0243903125000005-16.3902440625-11.7073171875-25.756096875-11.7073171875H186.536585c-18.731707500000002 0-35.1219515625 16.3902440625-35.121950625 37.463415000000005V753.951219375c0 21.0731709375 16.3902440625 37.463415000000005 35.121950625 37.463415000000005h650.92683c21.0731709375 0 35.1219515625-16.3902440625 35.121950625-37.463415000000005v-739.9024387500001zM259.12195156250004 346.53658500000006h398.04877968750003c9.365853750000001 0 18.731707500000002 4.682926875000001 25.756097812500002 11.7073171875 7.0243903125000005 7.0243903125000005 11.7073171875 16.3902440625 11.7073171875 25.756097812500002 0 21.0731709375-16.3902440625 37.463415000000005-35.1219515625 37.463415000000005h-398.04877968750003c-21.0731709375 0-35.1219515625-16.3902440625-35.1219515625-37.463415000000005 0-9.365853750000001 4.682926875000001-18.731707500000002 11.7073171875-25.756097812500002 2.3414634375000003-7.0243903125000005 11.7073171875-11.7073171875 21.0731709375-11.7073171875z m252.87804843749998 220.09756125c30.4390246875 0 53.853658125 25.756097812500002 53.853658125 56.195122500000004 0 30.4390246875-23.414634375 56.1951215625-53.853658125 56.1951215625s-53.853658125-25.756097812500002-53.853658125-56.1951215625c-2.3414634375000003-30.4390246875 23.414634375-56.1951215625 53.853658125-56.195122500000004z m-234.14634187500002 0c30.4390246875 0 53.853658125 25.756097812500002 53.8536590625 56.195122500000004 0 30.4390246875-23.414634375 56.1951215625-53.8536590625 56.1951215625S224 653.2682925 224 622.82926875c0-30.4390246875 23.414634375-56.1951215625 53.853658125-56.195122500000004z m468.29268375000004 112.39024406249999c-30.4390246875 0-53.853658125-25.756097812500002-53.8536590625-56.1951215625 0-30.4390246875 23.414634375-56.1951215625 53.8536590625-56.195122500000004 30.4390246875 0 53.853658125 25.756097812500002 53.853658125 56.195122500000004 0 30.4390246875-23.414634375 56.1951215625-53.853658125 56.1951215625z m16.390243124999998-480H259.12195156250004c-9.365853750000001 0-18.731707500000002-4.682926875000001-25.756097812500002-11.7073171875-7.0243903125000005-7.0243903125000005-11.7073171875-16.3902440625-11.7073171875-25.756097812500002 0-9.365853750000001 4.682926875000001-18.731707500000002 11.7073171875-25.756096875 7.0243903125000005-7.0243903125000005 16.3902440625-11.7073171875 25.756097812500002-11.7073171875h505.75609687499997c9.365853750000001 0 18.731707500000002 4.682926875000001 25.756097812500002 11.7073171875 7.0243903125000005 7.0243903125000005 11.7073171875 16.3902440625 11.7073171875 25.756096875 0 9.365853750000001-4.682926875000001 18.731707500000002-11.7073171875 25.756097812500002-9.365853750000001 9.365853750000001-16.3902440625 11.7073171875-28.097561250000002 11.7073171875z"  horiz-adv-x="1024" />

    
    <glyph glyph-name="finish" unicode="&#58895;" d="M467.9574470703125 142.72340419921875c-11.489361328125 0-21.06382939453125 3.82978740234375-30.638298339843754 11.489361328125l-174.25531933593751 174.25531933593751c-17.23404287109375 17.23404287109375-17.23404287109375 44.0425529296875 0 59.36170253906249 17.23404287109375 17.23404287109375 44.0425529296875 17.23404287109375 59.36170253906249 0l143.61702099609377-143.617021875 367.65957480468745 367.65957480468745c17.23404287109375 17.23404287109375 44.0425529296875 17.23404287109375 59.36170166015625 0 17.23404287109375-17.23404287109375 17.23404287109375-44.0425529296875 0-59.36170166015625L496.6808512695313 156.12765966796871c-7.6595748046875-7.6595748046875-19.1489361328125-13.40425546875-28.723404199218745-13.40425546875M512-66C263.06382939453124-66 62 135.06382939453124 62 384S263.06382939453124 834 512 834c88.08510673828124 0 174.25531933593751-24.893616796875 247.02127646484374-74.68085126953125 15.319148730468752-9.57446806640625 19.1489361328125-30.638297460937505 9.57446806640625-44.0425529296875-9.57446806640625-15.319148730468752-30.638297460937505-19.1489361328125-44.0425529296875-9.57446806640625-63.191489062500004 42.12765966796874-135.9574470703125 63.191489062500004-212.5531916015625 63.191489062500004-212.5531916015625 0-384.893616796875-172.3404251953125-384.893616796875-384.893616796875 0-212.5531916015625 172.3404251953125-384.893616796875 384.893616796875-384.893616796875 212.5531916015625 0 384.893616796875 172.3404251953125 384.893616796875 384.893616796875 0 13.40425546875 0 26.8085109375-1.9148932617187504 40.21276552734375-1.9148932617187504 17.23404287109375 11.489361328125 32.5531916015625 28.723404199218745 34.4680857421875 17.23404287109375 1.9148932617187504 32.5531916015625-11.489361328125 34.46808486328125-28.723404199218745 1.9148932617187504-15.319148730468752 1.9148932617187504-30.638297460937505 1.9148941406249997-45.9574470703125C962 135.06382939453124 760.9361706054688-66 512-66m0 0"  horiz-adv-x="1024" />

    
    <glyph glyph-name="money" unicode="&#58896;" d="M763.2500002929687 757.1249997070312c-15.00000029296875 9.375000292968751-33.75 5.625-43.12500029296875-9.3749994140625-9.375000292968751-15.00000029296875-5.625-33.75 7.49999970703125-43.12500029296875 106.875-71.25000029296874 170.62499970703126-193.12499970703124 170.62500058593747-320.625 0-213.75-174.375-388.125-388.125-388.125S123.875 170.25 123.875 384c0 129.375 63.74999970703124 249.37499970703126 170.62499970703126 320.625 13.124999707031249 9.375000292968751 16.875 28.125 7.5000005859375 43.12500029296875-9.375000292968751 15.00000029296875-28.125 18.74999970703125-43.12500029296875 9.3749994140625C136.99999970703124 672.7499997070312 62 534.0000002929687 62 384c0-247.5 202.5-450 450-450s450 202.5 450 450c0 150.00000029296874-74.99999970703125 288.74999970703124-198.74999970703126 373.12499970703124z m-155.62500029296874-13.124999707031249c9.375000292968751-5.625 22.5-5.625 31.87500029296875 0s15.00000029296875 16.875 14.9999994140625 28.125V802.1249997070313C656.3750002929687 820.8750002929687 641.375 834 624.5 834s-31.87500029296875-13.124999707031249-31.87500029296875-31.87500029296875v-29.99999970703125c0-11.25 5.625-22.5 15.00000029296875-28.125z m-181.87499970703126-73.125c11.25-18.74999970703125 43.12500029296875-48.75000029296875 86.24999970703125-48.75000029296875 45 0 74.99999970703125 29.99999970703125 86.24999970703125 48.75000029296875 9.375000292968751 13.124999707031249 5.625 31.87500029296875-9.3749994140625 41.24999970703125-15.00000029296875 9.375000292968751-33.75 5.625-43.12500029296875-9.3749994140625 0 0-13.124999707031249-18.74999970703125-33.75-18.750000585937503s-31.87500029296875 18.74999970703125-33.75 18.750000585937503c-9.375000292968751 15.00000029296875-28.125 18.74999970703125-43.12500029296875 9.3749994140625-15.00000029296875-7.49999970703125-18.74999970703125-28.125-9.3749994140625-41.24999970703125z m-41.2500005859375 73.125c9.375000292968751-5.625 22.5-5.625 31.87500029296875 0s15.00000029296875 16.875 15.00000029296875 28.125V802.1249997070313C431.3750002929687 818.9999997070313 416.375 834 399.5 834c-16.875 0-31.87500029296875-13.124999707031249-31.87500029296875-31.87500029296875v-29.99999970703125c0-11.25 7.49999970703125-22.5 16.875-28.125z m-29.99999970703125-438.75c-11.25 0-22.5-5.625-28.125-15.00000029296875-5.625-9.375000292968751-5.625-22.5 0-31.8749994140625s16.875-15.00000029296875 28.125-15.00000029296875h125.62499970703126v-99.37500029296874c0-11.25 5.625-22.5 15.00000029296875-28.125 9.375000292968751-5.625 22.5-5.625 31.87500029296875 0s15.00000029296875 16.875 14.9999994140625 28.125v99.37500029296874h125.62500058593751c11.25 0 22.5 5.625 28.125 15.00000029296875 5.625 9.375000292968751 5.625 22.5 0 31.8749994140625s-16.875 15.00000029296875-28.125 15.00000029296875h-125.62500058593751v84.375h125.62500058593751c11.25 0 22.5 5.625 28.125 15.00000029296875 5.625 9.375000292968751 5.625 22.5 0 31.8749994140625s-16.875 15.00000029296875-28.125 15.00000029296875H586.9999997070313l67.5 67.5c13.124999707031249 13.124999707031249 13.124999707031249 31.87500029296875 0 45s-31.87500029296875 13.124999707031249-45 0L512 464.6249997070313l-99.37500029296874 99.37500029296874c-13.124999707031249 11.25-31.87500029296875 11.25-43.1249994140625 0-11.25-11.25-13.124999707031249-31.87500029296875 0-43.12500029296875l67.5-67.5h-80.6250005859375c-11.25 0-22.5-5.625-28.125-14.9999994140625-5.625-9.375000292968751-5.625-22.5 0-31.87500029296875s16.875-15.00000029296875 28.125-15.00000029296875h125.62500058593751v-84.375h-127.50000029296874z"  horiz-adv-x="1024" />

    
    <glyph glyph-name="back" unicode="&#58897;" d="M806.12766 830.638298l-65.361703 65.361702L283.234043 449.361702l-65.361703-65.361702 65.361703-65.361702L740.765957-128l65.361703 65.361702L350.774468 384 806.12766 830.638298z"  horiz-adv-x="1024" />

    


  </font>
</defs>
</svg>
